FILE "2026-06-22_10h32m00s.mp3" MP3
  TRACK 01 AUDIO
    TITLE "Last All Night (Koala) (feat. KStewart) - Extended"
    PERFORMER "Oliver Heldens/KStewart"
    INDEX 01 00:06:11
  TRACK 02 AUDIO
    TITLE "Free Your Mind"
    PERFORMER "Prospa/Cloonee"
    INDEX 01 04:47:69
  TRACK 03 AUDIO
    TITLE "Just The Way You Are"
    PERFORMER "Milky/Ely Oaks"
    INDEX 01 08:12:73
  TRACK 04 AUDIO
    TITLE "Favour"
    PERFORMER "FISHER/Tones And I"
    INDEX 01 10:36:70
  TRACK 05 AUDIO
    TITLE "Summer 91 (Looking Back)"
    PERFORMER "Noizu"
    INDEX 01 13:42:16
  TRACK 06 AUDIO
    TITLE "Sweet Nothing (feat. Florence Welch)"
    PERFORMER "Calvin Harris/Florence Welch"
    INDEX 01 16:44:02
  TRACK 07 AUDIO
    TITLE "Where's Your Head At - Steve Angello Remix"
    PERFORMER "Basement Jaxx/Steve Angello"
    INDEX 01 20:10:08
  TRACK 08 AUDIO
    TITLE "I Could Be The One (Avicii Vs. Nicky Romero) - Radio Edit"
    PERFORMER "Avicii/Nicky Romero"
    INDEX 01 23:28:33
  TRACK 09 AUDIO
    TITLE "Release The Pressure"
    PERFORMER "Calvin Harris/Kasabian"
    INDEX 01 26:53:11
  TRACK 10 AUDIO
    TITLE "Sweet Lovin' - Radio Edit"
    PERFORMER "Sigala/Bryn Christopher"
    INDEX 01 30:26:32
  TRACK 11 AUDIO
    TITLE "Gold Dust - Radio Edit"
    PERFORMER "DJ Fresh"
    INDEX 01 33:48:33
  TRACK 12 AUDIO
    TITLE "Five More Hours"
    PERFORMER "Deorro/Chris Brown"
    INDEX 01 37:02:37
  TRACK 13 AUDIO
    TITLE "Justice - D.A.N.C.E. (Justice remix)"
    PERFORMER "Dein Couseng"
    INDEX 01 40:39:12
  TRACK 14 AUDIO
    TITLE "Beauty And A Beat"
    PERFORMER "Justin Bieber/Nicki Minaj"
    INDEX 01 44:37:56
  TRACK 15 AUDIO
    TITLE "Katy on a Mission"
    PERFORMER "Katy B"
    INDEX 01 48:07:14
  TRACK 16 AUDIO
    TITLE "Beauty And A Beat"
    PERFORMER "Justin Bieber/Nicki Minaj"
    INDEX 01 48:13:72
  TRACK 17 AUDIO
    TITLE "Katy on a Mission"
    PERFORMER "Katy B"
    INDEX 01 48:20:14
  TRACK 18 AUDIO
    TITLE "Kickstarts"
    PERFORMER "Example"
    INDEX 01 51:49:56
  TRACK 19 AUDIO
    TITLE "Better Off Alone"
    PERFORMER "Alice Deejay"
    INDEX 01 54:45:50
